<?xml version="1.0" encoding="utf-8"?>
<!-- Generator: Adobe Illustrator 18.1.1, SVG Export Plug-In . SVG Version: 6.00 Build 0)  -->
<svg version="1.1" id="Layer_1" focusable="false" xmlns="http://www.w3.org/2000/svg" xmlns:xlink="http://www.w3.org/1999/xlink"
	 x="0px" y="0px" viewBox="65 0 245 280" enable-background="new 65 0 245 280" xml:space="preserve">
<path fill="#6A6A6A" d="M88.7,254.9c-32-33-31.4-86.1,0.8-119L204.1,18.6c24.2-24.8,63.6-24.8,87.9,0c24,24.6,24,64.2,0,88.7
	L192,209.5c-16.3,16.7-43,16.5-59.1-0.5c-15.5-16.4-15-42.4,0.8-58.5l78.6-80.3c3.4-3.5,8.9-3.5,12.4-0.1l12.5,12.2
	c3.5,3.4,3.5,8.9,0.1,12.4L158.7,175c-2.7,2.8-2.9,7.3-0.4,10c2.4,2.5,6.1,2.6,8.6,0.1L267,82.9c10.7-11,10.7-28.8,0-39.8
	c-10.5-10.7-27.3-10.7-37.8,0L114.4,160.4c-19,19.4-19.3,50.9-0.7,70.2c18.6,19.2,48.7,19.2,67.3,0.2l94.1-96.2
	c3.4-3.5,8.9-3.5,12.4-0.1l12.5,12.2c3.5,3.4,3.5,8.9,0.1,12.4l-94.1,96.2C173.5,288.5,120.8,288.1,88.7,254.9L88.7,254.9z"/>
</svg>
