<?xml version="1.0" encoding="utf-8"?>
<!-- Generator: Adobe Illustrator 18.1.1, SVG Export Plug-In . SVG Version: 6.00 Build 0)  -->
<svg version="1.1" id="Layer_1" focusable="false" xmlns="http://www.w3.org/2000/svg" xmlns:xlink="http://www.w3.org/1999/xlink"
	 x="0px" y="0px" viewBox="91.3 43.8 192.5 192.5" enable-background="new 91.3 43.8 192.5 192.5" xml:space="preserve">
<path fill="#6A6A6A" d="M224,140l54.7-54.7c6.7-6.7,6.7-17.6,0-24.3l-12.2-12.2c-6.7-6.7-17.6-6.7-24.3,0l-54.7,54.7l-54.7-54.7
	c-6.7-6.7-17.6-6.7-24.3,0L96.3,60.9c-6.7,6.7-6.7,17.6,0,24.3L151,140l-54.7,54.7c-6.7,6.7-6.7,17.6,0,24.3l12.2,12.2
	c6.7,6.7,17.6,6.7,24.3,0l54.7-54.7l54.7,54.7c6.7,6.7,17.6,6.7,24.3,0l12.2-12.2c6.7-6.7,6.7-17.6,0-24.3L224,140z"/>
</svg>
